<?xml version="1.0" encoding="utf-8"?>
<!-- Generator: Adobe Illustrator 17.0.0, SVG Export Plug-In . SVG Version: 6.00 Build 0)  -->
<!DOCTYPE svg PUBLIC "-//W3C//DTD SVG 1.1//EN" "http://www.w3.org/Graphics/SVG/1.1/DTD/svg11.dtd">
<svg version="1.1" id="Layer_1" xmlns="http://www.w3.org/2000/svg" xmlns:xlink="http://www.w3.org/1999/xlink" x="0px" y="0px"
	 width="512px" height="512px" viewBox="0 0 512 512" enable-background="new 0 0 512 512" xml:space="preserve">
<g>
	<g>
		<path fill="#FF9696" d="M136.533,174.933c-28.237,0-51.2,22.963-51.2,51.2s22.963,51.2,51.2,51.2s51.2-22.963,51.2-51.2
			S164.77,174.933,136.533,174.933z M136.533,260.267c-18.825,0-34.133-15.309-34.133-34.133S117.709,192,136.533,192
			s34.133,15.309,34.133,34.133S155.358,260.267,136.533,260.267z"/>
	</g>
</g>
<g>
	<g>
		<path fill="#FF9696" d="M324.267,311.467c-23.526,0-42.667,19.14-42.667,42.667s19.14,42.667,42.667,42.667
			s42.667-19.14,42.667-42.667S347.793,311.467,324.267,311.467z M324.267,379.733c-14.114,0-25.6-11.486-25.6-25.6
			s11.486-25.6,25.6-25.6s25.6,11.486,25.6,25.6S338.381,379.733,324.267,379.733z"/>
	</g>
</g>
<g>
	<g>
		<path fill="#FF9696" d="M506.735,21.982c-1.067-0.444-2.167-0.572-3.268-0.572v-0.077h-358.4v0.077
			c-1.101,0-2.21,0.137-3.268,0.58c-3.183,1.314-5.265,4.429-5.265,7.876V115.2c0,2.261,0.896,4.437,2.5,6.033l10.155,10.155
			c-35.004,1.664-70.263-3.55-103.603-15.676c-2.628-0.939-5.53-0.572-7.817,1.033c-2.278,1.596-3.635,4.207-3.635,6.989V229.53
			c0,67.209,28.988,131.26,78.455,175.804H85.333c-20.608,0-37.845,14.686-41.805,34.133h-0.862C19.14,439.467,0,458.607,0,482.133
			c0,4.71,3.823,8.533,8.533,8.533h256c4.71,0,8.533-3.823,8.533-8.533c0-23.526-19.14-42.667-42.667-42.667h-0.862
			c-3.959-19.447-21.205-34.133-41.805-34.133h-27.255c49.468-44.544,78.455-108.595,78.455-175.804v-8.397l34.133,34.133v41.788
			c-15.667,14.071-25.6,34.415-25.6,57.079c0,42.342,34.458,76.8,76.8,76.8s76.8-34.458,76.8-76.8
			c0-22.665-9.933-43.008-25.6-57.079v-41.788L509.5,121.233c1.604-1.596,2.5-3.772,2.5-6.033V29.867
			C512,26.419,509.918,23.305,506.735,21.982z M482.867,38.4L465.8,55.467H182.733L165.666,38.4H482.867z M448.734,72.533
			L431.667,89.6H216.866l-17.067-17.067H448.734z M153.6,50.466l67.43,67.43c-4.693,1.579-9.421,3.046-14.182,4.352L153.6,69.001
			V50.466z M153.6,93.133l33.655,33.655c-5.282,1.024-10.573,1.937-15.898,2.637L153.6,111.667V93.133z M187.733,422.4
			c14.114,0,25.6,11.486,25.6,25.6c0,4.71,3.823,8.533,8.533,8.533h8.533c11.127,0,20.617,7.134,24.141,17.067H18.526
			c3.524-9.933,13.013-17.067,24.141-17.067H51.2c4.71,0,8.533-3.823,8.533-8.533c0-14.114,11.486-25.6,25.6-25.6H187.733z
			 M221.867,229.53c0,67.866-31.787,132.309-85.333,173.67C82.987,361.847,51.2,297.395,51.2,229.53v-93.884
			c55.458,17.51,115.209,17.51,170.667,0V229.53z M233.933,106.667h180.668l-90.334,90.334L233.933,106.667z M327.799,243.2
			l-88.866-88.866V135.8l107.401,107.4H327.799z M358.4,260.267v25.173c-10.3-5.137-21.862-8.107-34.133-8.107
			s-23.834,2.97-34.133,8.107v-25.173H358.4z M238.933,197.001v-18.534l64.734,64.734h-18.534L238.933,197.001z M384,354.133
			c0,32.939-26.795,59.733-59.733,59.733s-59.733-26.795-59.733-59.733s26.795-59.733,59.733-59.733S384,321.195,384,354.133z
			 M494.933,111.667l-128,128l-9.267-9.267L494.933,93.133V111.667z M494.933,69.001L345.6,218.334l-9.267-9.267l158.6-158.601
			V69.001z"/>
	</g>
</g>
<g>
	<g>
		<rect x="128" y="294.4" fill="#FF9696" width="17.067" height="17.067"/>
	</g>
</g>
<g>
	<g>
		<rect x="93.867" y="294.4" fill="#FF9696" width="17.067" height="17.067"/>
	</g>
</g>
<g>
	<g>
		<rect x="162.133" y="294.4" fill="#FF9696" width="17.067" height="17.067"/>
	</g>
</g>
</svg>
