<?xml version="1.0" encoding="utf-8"?>
<!-- Generator: Adobe Illustrator 17.0.0, SVG Export Plug-In . SVG Version: 6.00 Build 0)  -->
<!DOCTYPE svg PUBLIC "-//W3C//DTD SVG 1.1//EN" "http://www.w3.org/Graphics/SVG/1.1/DTD/svg11.dtd">
<svg version="1.1" id="Capa_1" xmlns="http://www.w3.org/2000/svg" xmlns:xlink="http://www.w3.org/1999/xlink" x="0px" y="0px"
	 width="512px" height="512px" viewBox="0 0 512 512" enable-background="new 0 0 512 512" xml:space="preserve">
<path fill="#FF9696" d="M412.858,468.093h-75.8l-3.016-124.229c-0.24-9.878,1.249-19.632,4.424-28.989l31.86-93.901
	c2.29-6.749,3.221-13.778,2.769-20.889l-4.678-73.58c0.078-0.061,0.16-0.125,0.237-0.187c7.792-6.16,12.149-15.754,11.658-25.664
	c-0.355-7.148-0.973-17.261-1.898-24.847c-0.083-0.679-0.253-1.342-0.507-1.977c-0.479-1.198-1.077-2.41-1.803-3.645l0.249-0.293
	c2.016-2.372,3.221-5.389,3.395-8.494c0.732-13.084,2.239-44.621,0.432-54.865c-0.423-2.394-1.924-4.462-4.071-5.604
	c-2.148-1.143-4.7-1.232-6.922-0.244c-3.084,1.371-8.436,4.564-19.307,16.408c-0.093,0.097-0.184,0.196-0.273,0.297
	c-6.177,6.748-12.302,14.267-16.96,20.203h-32.601c-4.658-5.936-10.782-13.453-16.958-20.201c-0.092-0.105-0.185-0.208-0.282-0.308
	c-10.866-11.839-16.217-15.031-19.3-16.401c-2.221-0.987-4.775-0.897-6.922,0.244c-2.148,1.141-3.648,3.209-4.071,5.603
	c-1.809,10.252-0.3,41.785,0.432,54.866c0.174,3.107,1.38,6.124,3.396,8.497l0.248,0.291c-0.725,1.235-1.324,2.446-1.803,3.644
	c-0.254,0.635-0.425,1.3-0.507,1.979c-0.925,7.587-1.542,17.699-1.897,24.847c-0.377,7.605,2.111,15.017,6.805,20.841l-19.7,36.113
	l-59.796,20.607c-41.447,14.284-72.491,49.845-81.02,92.806C87.8,325.791,75.29,400.963,77.43,448.05
	c0.571,12.568,3.891,24.837,9.602,35.481c7.112,13.255,19.192,28.47,49.741,28.47H412.86c12.105,0,21.953-9.849,21.953-21.953
	C434.813,477.943,424.963,468.093,412.858,468.093z M271.196,27.808c0.071,0.081,0.144,0.16,0.218,0.238
	c7.347,8.025,14.794,17.455,18.59,22.377c1.824,2.366,4.749,3.431,7.538,2.974h37.613c2.791,0.457,5.714-0.609,7.538-2.974
	c3.815-4.946,11.317-14.447,18.7-22.499c0.014-0.016,0.028-0.031,0.042-0.045c1.386-1.512,2.651-2.846,3.806-4.025
	c-0.04,10.538-0.591,24.384-1.245,36.173l-3.907,4.597c-2.485,2.923-2.511,7.21-0.062,10.165c1.496,1.804,2.35,3.157,2.838,4.108
	c0.792,6.985,1.339,16.025,1.663,22.542c0.239,4.818-1.882,9.484-5.673,12.481c-9.007,7.12-26.048,20.038-38.981,26.555
	c-2.207,1.112-4.842,1.112-7.048,0c-12.936-6.519-29.975-19.435-38.98-26.555c-3.793-2.998-5.913-7.664-5.675-12.481
	c0.324-6.518,0.869-15.556,1.662-22.542c0.488-0.952,1.341-2.306,2.838-4.108c2.45-2.954,2.425-7.24-0.061-10.165l-3.907-4.597
	c-0.654-11.788-1.206-25.635-1.246-36.173C268.591,25.014,269.835,26.325,271.196,27.808z M412.858,496.194H136.772
	c-20.826,0-29.142-7.705-35.812-20.135c-4.6-8.572-7.276-18.505-7.74-28.726c-2.069-45.505,10.254-119.321,20.956-173.233
	c7.437-37.467,34.515-68.481,70.667-80.941l62.692-21.605c1.863-0.642,3.419-1.957,4.363-3.687l19.539-35.816
	c10.631,8.078,23.466,17.092,34.276,22.539c3.331,1.678,6.983,2.517,10.637,2.517c3.653,0,7.307-0.839,10.637-2.517
	c8.221-4.142,17.615-10.352,26.323-16.643l4.014,63.141c0.32,5.041-0.34,10.024-1.963,14.809l-31.86,93.901
	c-3.774,11.12-5.542,22.712-5.256,34.451l3.006,123.845h-11.061l-17.351-130.131c-0.022-0.173-0.052-0.345-0.086-0.515
	l-22.48-111.699c-0.861-4.278-5.024-7.05-9.308-6.189c-4.279,0.861-7.05,5.028-6.189,9.308l22.429,111.443l2.26,16.952
	c-7.706-18.219-20.686-33.913-37.888-45.23c-3.644-2.397-8.546-1.388-10.947,2.259c-2.398,3.646-1.388,8.547,2.259,10.947
	c23.139,15.223,37.249,39.818,38.711,67.476c1.462,27.659-9.976,53.604-31.381,71.182l-5.112,4.198H213.76
	c-26.803,0-52.932-7.591-75.562-21.953c-3.686-2.34-8.569-1.247-10.908,2.438s-1.248,8.568,2.438,10.908
	c25.166,15.971,54.225,24.413,84.032,24.413h199.101c3.389,0,6.147,2.758,6.147,6.147S416.247,496.194,412.858,496.194z
	 M294.24,468.093h-35.283c15.245-15.71,24.83-35.558,27.675-57.068L294.24,468.093z"/>
</svg>
