<?xml version="1.0" encoding="utf-8"?>
<!-- Generator: Adobe Illustrator 17.0.0, SVG Export Plug-In . SVG Version: 6.00 Build 0)  -->
<!DOCTYPE svg PUBLIC "-//W3C//DTD SVG 1.1//EN" "http://www.w3.org/Graphics/SVG/1.1/DTD/svg11.dtd">
<svg version="1.1" id="Capa_1" xmlns="http://www.w3.org/2000/svg" xmlns:xlink="http://www.w3.org/1999/xlink" x="0px" y="0px"
	 width="512px" height="512px" viewBox="0 0 512 512" enable-background="new 0 0 512 512" xml:space="preserve">
<path fill="#FF9696" d="M500.776,231.592c-3.496-4.632-7.112-9.424-7.688-13.144c-0.624-3.96,1.376-9.776,3.312-15.392
	c2.816-8.144,5.992-17.376,3.136-26.176c-2.904-8.968-11-14.624-18.144-19.616c-4.8-3.352-9.752-6.816-11.504-10.24
	c-1.792-3.504-1.688-9.616-1.592-15.52c0.144-8.656,0.304-18.456-5.176-25.992c-5.504-7.568-14.912-10.44-23.208-12.968
	c-5.624-1.712-11.448-3.496-14.192-6.24c-2.752-2.752-4.528-8.576-6.24-14.2c-2.528-8.296-5.4-17.704-12.976-23.208
	c-7.528-5.48-17.336-5.328-25.984-5.176c-5.904,0.112-12.024,0.2-15.52-1.592c-3.424-1.744-6.888-6.704-10.24-11.504
	c-4.984-7.144-10.64-15.232-19.608-18.144c-8.808-2.856-18.056,0.32-26.208,3.12c-5.616,1.936-11.448,3.928-15.392,3.32
	c-3.72-0.584-8.512-4.2-13.152-7.688C273.424,5.968,265.504,0,256,0s-17.424,5.968-24.408,11.232
	c-4.632,3.496-9.424,7.104-13.144,7.688c-3.944,0.632-9.768-1.384-15.392-3.32c-8.152-2.808-17.384-5.984-26.176-3.136
	c-8.968,2.912-14.624,11-19.616,18.144c-3.352,4.792-6.816,9.752-10.24,11.496c-3.504,1.792-9.624,1.68-15.52,1.592
	c-8.656-0.168-18.456-0.312-25.992,5.176c-7.568,5.504-10.44,14.912-12.968,23.208c-1.712,5.632-3.496,11.448-6.24,14.2
	c-2.752,2.752-8.576,4.528-14.208,6.248c-8.296,2.528-17.696,5.4-23.208,12.968c-5.48,7.528-5.32,17.336-5.176,25.992
	c0.096,5.912,0.192,12.016-1.592,15.528c-1.744,3.416-6.704,6.88-11.496,10.232c-7.144,4.992-15.232,10.648-18.152,19.616
	c-2.856,8.808,0.328,18.04,3.136,26.192c1.936,5.624,3.944,11.432,3.32,15.392c-0.584,3.72-4.192,8.512-7.688,13.144
	C5.968,238.576,0,246.496,0,256s5.968,17.424,11.232,24.408c3.496,4.632,7.104,9.432,7.688,13.152l15.808-2.488
	c-1.2-7.672-6.04-14.088-10.72-20.296C20.072,265.552,16,260.152,16,256s4.072-9.552,8.008-14.776
	c4.68-6.208,9.512-12.624,10.72-20.296c1.24-7.888-1.424-15.616-4-23.088c-2.088-6.056-4.248-12.328-3.04-16.032
	c1.256-3.864,6.768-7.712,12.096-11.44c6.4-4.472,13.024-9.096,16.584-16.072c3.6-7.056,3.472-15.192,3.336-23.064
	c-0.104-6.448-0.208-13.104,2.12-16.312c2.36-3.24,8.752-5.192,14.944-7.08c7.504-2.296,15.272-4.664,20.848-10.24
	c5.576-5.576,7.944-13.336,10.232-20.84c1.888-6.184,3.832-12.584,7.08-14.944c3.208-2.336,9.872-2.232,16.312-2.12
	c7.872,0.128,16,0.264,23.064-3.336c6.976-3.56,11.6-10.176,16.08-16.584c3.72-5.328,7.576-10.832,11.44-12.088
	c3.696-1.216,9.968,0.96,16.024,3.04c7.48,2.576,15.2,5.232,23.088,4c7.664-1.2,14.088-6.04,20.296-10.72
	C246.448,20.072,251.848,16,256,16c4.152,0,9.552,4.072,14.776,8.008c6.208,4.68,12.624,9.512,20.296,10.72
	c7.872,1.216,15.616-1.424,23.088-4c6.064-2.088,12.32-4.256,16.04-3.04c3.856,1.256,7.712,6.76,11.44,12.088
	c4.472,6.4,9.104,13.024,16.072,16.584c7.056,3.6,15.224,3.488,23.064,3.336c6.448-0.096,13.112-0.216,16.32,2.12
	c3.24,2.36,5.184,8.752,7.08,14.944c2.288,7.504,4.656,15.272,10.232,20.848c5.568,5.576,13.336,7.944,20.84,10.232
	c6.176,1.888,12.576,3.84,14.936,7.08c2.336,3.208,2.224,9.864,2.12,16.312c-0.128,7.872-0.256,16.008,3.344,23.064
	c3.56,6.976,10.176,11.6,16.576,16.072c5.328,3.728,10.832,7.576,12.096,11.448c1.2,3.704-0.952,9.968-3.04,16.024
	c-2.576,7.472-5.232,15.2-4,23.088c1.208,7.664,6.048,14.088,10.72,20.288c3.928,5.232,8,10.632,8,14.784s-4.072,9.552-8.008,14.784
	c-4.672,6.2-9.504,12.616-10.72,20.288l15.816,2.488c0.576-3.72,4.192-8.512,7.688-13.152C506.032,273.424,512,265.504,512,256
	S506.032,238.576,500.776,231.592z M435.232,404.168c-7.504,2.288-15.272,4.656-20.84,10.232c-5.576,5.568-7.944,13.336-10.24,20.84
	c-1.88,6.184-3.832,12.576-7.08,14.936c-3.2,2.328-9.904,2.216-16.304,2.12c-7.872-0.128-16-0.256-23.072,3.344
	c-6.968,3.56-11.592,10.176-16.064,16.576c-3.728,5.328-7.576,10.832-11.448,12.096c-3.712,1.216-9.968-0.944-16.032-3.04
	c-7.472-2.568-15.208-5.184-23.088-4c-7.672,1.208-14.088,6.048-20.288,10.72C265.552,491.928,260.152,496,256,496
	s-9.552-4.072-14.784-8.008c-6.2-4.672-12.624-9.504-20.288-10.72c-7.864-1.184-15.616,1.432-23.088,4
	c-6.056,2.088-12.312,4.256-16.032,3.04c-3.864-1.256-7.72-6.768-11.44-12.096c-4.48-6.408-9.104-13.024-16.072-16.584
	c-7.056-3.6-15.2-3.472-23.056-3.336c-6.448,0.08-13.112,0.216-16.32-2.128c-3.24-2.36-5.192-8.752-7.08-14.936
	c-2.296-7.504-4.664-15.272-10.24-20.84c-5.576-5.576-13.336-7.944-20.848-10.24c-6.184-1.88-12.584-3.832-14.936-7.08
	l-12.936,9.424c5.504,7.56,14.912,10.432,23.2,12.96c5.632,1.72,11.456,3.496,14.208,6.248c2.752,2.752,4.528,8.568,6.248,14.2
	c2.528,8.296,5.4,17.696,12.968,23.2c7.528,5.496,17.336,5.312,26,5.176c5.896-0.064,12.016-0.192,15.52,1.592
	c3.416,1.744,6.88,6.704,10.232,11.504c4.992,7.144,10.648,15.232,19.616,18.152c8.792,2.832,18.032-0.32,26.184-3.136
	c5.624-1.928,11.448-3.992,15.392-3.312c3.72,0.576,8.512,4.192,13.144,7.688C238.576,506.032,246.496,512,256,512
	s17.424-5.968,24.408-11.224c4.632-3.496,9.432-7.112,13.152-7.688c3.904-0.688,9.768,1.376,15.392,3.312
	c8.16,2.816,17.4,6,26.176,3.136c8.968-2.904,14.624-11.008,19.616-18.152c3.352-4.792,6.824-9.752,10.232-11.496
	c3.504-1.8,9.6-1.704,15.52-1.592c8.6,0.136,18.448,0.304,25.992-5.176c7.56-5.504,10.432-14.904,12.96-23.2
	c1.72-5.624,3.496-11.456,6.248-14.2c2.752-2.752,8.568-4.528,14.192-6.24c8.296-2.528,17.704-5.408,23.208-12.976l-12.936-9.408
	C447.816,400.328,441.416,402.272,435.232,404.168z"/>
<path fill="#FF9696" d="M64,368v-16c0-4.424-3.584-8-8-8H40v16h8v8c0,4.416-3.592,8-8,8s-8-3.584-8-8v-48c0-4.416,3.592-8,8-8
	s8,3.584,8,8v8h16v-8c0-13.232-10.768-24-24-24s-24,10.768-24,24v48c0,13.232,10.768,24,24,24S64,381.232,64,368z M72,296v72
	c0,13.232,10.768,24,24,24s24-10.768,24-24v-72h-16v72c0,4.416-3.592,8-8,8s-8-3.584-8-8v-72H72z M128,320v72h16v-16h16v16h16v-72
	c0-13.232-10.768-24-24-24S128,306.768,128,320z M160,320v40h-16v-40c0-4.416,3.592-8,8-8C156.408,312,160,315.584,160,320z
	 M240,320v72h16v-16h16v16h16v-72c0-13.232-10.768-24-24-24S240,306.768,240,320z M264,312c4.416,0,8,3.584,8,8v40h-16v-40
	C256,315.584,259.592,312,264,312z M184,304v39.968c0,0.024,0,0.04,0,0.056V392h16v-25.192L217.752,389c1.52,1.896,3.816,3,6.248,3
	h8v-16h-4.16l-19.472-24.344C221.744,349.552,232,337.952,232,324c0-15.44-12.56-28-28-28h-12C187.584,296,184,299.576,184,304z
	 M200,312h4c6.616,0,12,5.384,12,12s-5.384,12-12,12h-4V312z M328,342.464l-16.568-41.432c-1.432-3.576-5.24-5.568-8.944-4.888
	C298.72,296.864,296,300.168,296,304v88h16v-46.464l16.568,41.432c1.24,3.088,4.216,5.032,7.424,5.032
	c0.504,0,1.016-0.048,1.52-0.144c3.768-0.72,6.488-4.024,6.488-7.856v-88h-16V342.464z M384,312h16v-16h-48v16h16v80h16V312z
	 M448,312v-16h-32c-4.424,0-8,3.576-8,8v80c0,4.424,3.576,8,8,8h32v-16h-24v-24h24v-16h-24v-24H448z M456,304v80
	c0,4.424,3.576,8,8,8h32v-16h-24v-24h24v-16h-24v-24h24v-16h-32C459.576,296,456,299.576,456,304z"/>
<path fill="#FF9696" d="M456,256c0-110.28-89.72-200-200-200S56,145.72,56,256c0,8.056,0.544,16.464,1.608,24.992l15.872-1.984
	C72.496,271.136,72,263.392,72,256c0-101.456,82.544-184,184-184c101.464,0,184,82.544,184,184c0,7.392-0.496,15.136-1.488,23.008
	l15.872,1.984C455.464,272.464,456,264.056,456,256z M378.136,414.328l-9.784-12.656C335.88,426.744,297.04,440,256,440
	c-41.032,0-79.88-13.256-112.344-38.328l-9.784,12.656C169.168,441.592,211.392,456,256,456S342.84,441.592,378.136,414.328z"/>
<path fill="#FF9696" d="M176,168h-16v16h8v80h16v-88C184,171.584,180.416,168,176,168z M220,168c-15.44,0-28,12.56-28,28v40
	c0,15.44,12.56,28,28,28s28-12.56,28-28v-40C248,180.56,235.44,168,220,168z M232,236c0,6.616-5.384,12-12,12s-12-5.384-12-12v-40
	c0-6.616,5.384-12,12-12s12,5.384,12,12V236z M284,168c-15.44,0-28,12.56-28,28v40c0,15.44,12.56,28,28,28s28-12.56,28-28v-40
	C312,180.56,299.44,168,284,168z M296,236c0,6.616-5.384,12-12,12s-12-5.384-12-12v-40c0-6.616,5.384-12,12-12s12,5.384,12,12V236z"
	/>
<path fill="#FF9696" d="M336.832,252.424l32-64l14.312,7.152l-32,64L336.832,252.424z"/>
<rect x="328" y="200" fill="#FF9696" width="16" height="16"/>
<rect x="376" y="232" fill="#FF9696" width="16" height="16"/>
</svg>
